<svg xmlns="http://www.w3.org/2000/svg" viewBox="0 0 1200 750" role="img" aria-labelledby="t"><title id="t">Aperçu de la landing page DevisFlow</title><defs><linearGradient id="g" x1="0" x2="1" y1="0" y2="1"><stop stop-color="#f8f9ff"/><stop offset="1" stop-color="#e8eaff"/></linearGradient><filter id="s" x="-20%" y="-20%" width="140%" height="160%"><feDropShadow dy="18" stdDeviation="18" flood-color="#31375f" flood-opacity=".16"/></filter></defs><rect width="1200" height="750" fill="url(#g)"/><circle cx="1050" cy="90" r="230" fill="#dedfff" opacity=".8"/><rect x="72" y="68" width="38" height="38" rx="10" fill="#3156f5"/><rect x="124" y="77" width="108" height="20" rx="8" fill="#171927"/><rect x="74" y="184" width="300" height="26" rx="13" fill="#7256db" opacity=".16"/><rect x="74" y="238" width="490" height="65" rx="12" fill="#171927"/><rect x="74" y="320" width="420" height="65" rx="12" fill="#3156f5"/><rect x="74" y="421" width="420" height="15" rx="8" fill="#9ba0b0" opacity=".55"/><rect x="74" y="452" width="340" height="15" rx="8" fill="#9ba0b0" opacity=".35"/><rect x="74" y="510" width="190" height="58" rx="16" fill="#3156f5"/><g filter="url(#s)"><rect x="650" y="145" width="460" height="455" rx="26" fill="#fff"/><path d="M650 198h460" stroke="#e3e5ef"/><circle cx="682" cy="171" r="7" fill="#ff8a87"/><circle cx="705" cy="171" r="7" fill="#ffd36a"/><circle cx="728" cy="171" r="7" fill="#68d09c"/><rect x="680" y="232" width="92" height="330" rx="12" fill="#f2f3f8"/><rect x="802" y="238" width="166" height="24" rx="8" fill="#171927"/><rect x="996" y="237" width="82" height="26" rx="13" fill="#edeaff"/><rect x="802" y="296" width="276" height="213" rx="16" fill="#fff" stroke="#e0e3ed"/><rect x="828" y="329" width="92" height="10" rx="5" fill="#9ba0b0"/><rect x="828" y="367" width="220" height="8" rx="4" fill="#e3e5ed"/><rect x="828" y="397" width="220" height="8" rx="4" fill="#e3e5ed"/><rect x="828" y="446" width="72" height="10" rx="5" fill="#9ba0b0"/><rect x="974" y="437" width="74" height="22" rx="6" fill="#171927"/><rect x="981" y="531" width="97" height="38" rx="10" fill="#3156f5"/></g></svg>
